<svg xmlns="http://www.w3.org/2000/svg" viewBox="0 0 1280 594" role="img" aria-label="Graphic showing a steep curve in number of cases without intervention and a flatter curve with intervention">
  <defs>
    <style>
      .cls-1,.cls-7{isolation:isolate}.cls-7{font-size:16px;font-family:OpenSans-Regular,Open Sans}.cls-8{fill:#677279}.cls-7{fill:#677279}.cls-9{fill:#fff;stroke:none;}.cls-10{fill:#667279;stroke:none;}
    </style>
  </defs>
  <g class="cls-1">
    <g id="Layer_1" data-name="Layer 1">
      <g id="capacity">
        <path id="over" d="M460 0c118.88 0 93 560 439 560H21C362.67 560 341.12 0 460 0z" fill-rule="evenodd" fill="#e0484d"></path>
      </g>
      <g id="capacity-2" data-name="capacity">
        <path id="under" d="M650.08 339.77C863.66 339.77 865.06 560 1280 560H21c432.28 0 415.5-220.23 629.08-220.23z" style="mix-blend-mode:multiply" fill="#577d82" fill-rule="evenodd"></path>
        <path id="stroke" d="M650.5 339.77C864.08 339.77 865.06 560 1280 560H21c432.28 0 415.92-220.23 629.5-220.23z" stroke-width="2" stroke-miterlimit="10" stroke="#fff" fill="none"></path>
      </g>
      <g id="threshold">
        <text id="label" transform="translate(864 313.03)" class="cls-7" style="isolation:isolate" fill="#677279" font-size="16" font-family="OpenSans-Regular,Open Sans">
          Healthcare system capacity
        </text>
        <path id="threshold-line" style="mix-blend-mode:luminosity" stroke="#979797" stroke-dasharray="3 2" fill="none" d="M37 326.13h1243"></path>
      </g>
      <text id="label-2" data-name="label" class="cls-7" transform="matrix(0 -1 1 0 13.71 560)">
        Number of cases
      </text>
      <path id="arrow-up" class="cls-8" d="M1208.4 585l-18 9v-8H211v-2h979.4v-8z" fill="#677279"></path>
      <path id="arrow-up-2" data-name="arrow-up" class="cls-8" d="M10 0l9 18h-8v392H9V18H1z" fill="#677279"></path>
      <text id="label-3" data-name="label" class="cls-7" transform="translate(37 589.69)">
        Days since first case
      </text>
    </g>
  </g>
</svg>
